<?xml version="1.0" standalone="no"?>
<!DOCTYPE svg PUBLIC "-//W3C//DTD SVG 20010904//EN"
 "http://www.w3.org/TR/2001/REC-SVG-20010904/DTD/svg10.dtd">
<svg version="1.0" xmlns="http://www.w3.org/2000/svg"
 width="500.000000pt" height="500.000000pt" viewBox="0 0 500.000000 500.000000"
 preserveAspectRatio="xMidYMid meet">

<g transform="translate(0.000000,500.000000) scale(0.100000,-0.100000)"
fill="#000000" stroke="none">
<path d="M1120 2973 c0 -4 20 -28 45 -53 l45 -45 -60 -429 c-33 -236 -60 -433
-60 -437 0 -8 219 -14 221 -6 0 1 13 85 27 187 l27 185 106 3 107 3 6 52 c4
29 9 71 12 95 l6 42 -99 0 c-55 0 -102 2 -104 5 -6 5 16 178 25 201 5 12 31
14 143 12 l138 -3 -3 -155 c-4 -169 7 -289 39 -420 21 -84 77 -222 96 -233 15
-10 123 67 202 145 182 178 302 402 360 671 12 53 21 100 21 103 0 4 7 1 15
-6 10 -9 14 -22 10 -39 -8 -38 -115 -813 -115 -833 0 -16 12 -18 110 -18 106
0 110 1 114 23 5 25 46 318 46 330 0 4 20 7 45 7 60 0 62 -11 36 -194 -12 -81
-21 -151 -21 -157 0 -6 43 -9 112 -7 l112 3 12 76 c43 282 41 335 -17 361
l-29 13 32 15 c50 24 70 61 89 167 23 126 25 251 3 281 -38 55 -51 57 -421 60
l-342 3 -6 -38 c-27 -154 -89 -343 -159 -480 -61 -123 -62 -134 3 315 15 105
25 194 23 197 -8 8 -952 6 -952 -2z m1629 -182 c13 -8 13 -25 2 -116 -6 -58
-14 -112 -18 -120 -8 -21 -103 -21 -103 0 0 21 29 217 35 233 5 14 63 16 84 3z"/>
<path d="M3000 2974 c0 -4 20 -29 45 -55 34 -37 44 -54 40 -71 -8 -36 -115
-802 -115 -826 0 -21 4 -22 110 -22 61 0 110 2 110 4 0 3 29 211 65 464 36
252 65 471 65 485 l0 27 -160 0 c-88 0 -160 -3 -160 -6z"/>
<path d="M3420 2973 c0 -4 18 -26 40 -48 l40 -41 -41 -140 c-22 -76 -76 -267
-120 -424 -44 -157 -82 -293 -85 -302 -5 -16 5 -18 108 -18 l113 0 21 78 20
77 72 3 72 3 0 -81 0 -80 110 0 110 0 -2 488 -3 487 -227 3 c-126 1 -228 -1
-228 -5z m255 -430 l-7 -183 -54 0 c-30 0 -54 1 -54 3 0 2 25 95 55 206 30
112 56 206 56 209 8 33 10 -87 4 -235z"/>
</g>
</svg>
