<?xml version="1.0" standalone="no"?>
<!DOCTYPE svg PUBLIC "-//W3C//DTD SVG 20010904//EN"
 "http://www.w3.org/TR/2001/REC-SVG-20010904/DTD/svg10.dtd">
<svg version="1.0" xmlns="http://www.w3.org/2000/svg"
 width="500.000000pt" height="500.000000pt" viewBox="0 0 500.000000 500.000000"
 preserveAspectRatio="xMidYMid meet">

<g transform="translate(0.000000,500.000000) scale(0.100000,-0.100000)"
fill="#000000" stroke="none">
<path d="M850 2500 l0 -600 1655 0 1655 0 0 600 0 600 -1655 0 -1655 0 0 -600z
m1185 493 c-24 -154 -46 -307 -65 -458 -6 -44 -13 -95 -16 -112 -12 -62 13
-33 63 75 79 167 128 314 154 460 l12 73 381 -3 c357 -3 383 -4 413 -23 52
-31 67 -74 60 -174 -10 -131 -33 -257 -54 -293 -10 -18 -34 -40 -52 -50 -46
-23 -46 -25 -12 -42 22 -12 33 -27 41 -57 12 -43 8 -89 -27 -321 l-16 -108
-118 0 c-65 0 -120 4 -123 8 -3 5 1 46 9 93 46 288 45 302 -29 297 -46 -3 -42
9 -70 -193 -9 -66 -20 -138 -24 -160 l-7 -40 -120 0 -120 0 3 40 c3 41 63 476
81 595 27 172 43 310 38 324 -12 31 -25 15 -36 -46 -50 -263 -149 -480 -306
-676 -98 -121 -278 -271 -311 -258 -20 8 -79 135 -104 223 -39 141 -52 266
-48 468 l3 190 -151 3 c-127 2 -153 0 -157 -13 -5 -12 -17 -93 -30 -205 -2
-12 18 -16 108 -20 l110 -5 -2 -35 c-1 -19 -5 -64 -10 -100 l-8 -65 -115 -5
-115 -5 -8 -45 c-4 -25 -18 -117 -30 -205 l-22 -160 -123 -3 c-94 -2 -122 0
-122 10 0 7 5 42 10 76 6 35 18 114 26 175 8 62 22 157 30 212 8 55 21 147 29
205 7 58 19 145 26 193 l13 88 -54 54 -54 55 527 0 528 0 -6 -37z m1365 26 c0
-11 -26 -202 -54 -394 -9 -55 -32 -221 -52 -370 -20 -148 -38 -276 -40 -282
-2 -10 -36 -13 -125 -13 l-121 0 6 58 c4 31 11 80 16 107 5 28 19 122 30 210
12 88 27 203 35 255 8 52 22 148 31 213 l17 119 -54 54 -53 54 182 0 c128 0
182 -3 182 -11z m601 -21 c2 -18 4 -258 4 -533 l0 -500 -117 -3 -118 -3 0 91
0 90 -80 0 -79 0 -15 -52 c-7 -29 -18 -69 -23 -88 l-9 -35 -122 -3 c-68 -1
-122 1 -122 6 0 9 76 283 120 432 10 36 49 170 85 299 l67 234 -48 48 -48 49
251 0 251 0 3 -32z"/>
<path d="M2676 2808 c-3 -13 -10 -59 -15 -103 -6 -44 -14 -97 -17 -117 l-7
-38 50 0 c29 0 55 5 60 13 13 16 47 243 38 256 -3 6 -28 11 -55 11 -43 0 -50
-3 -54 -22z"/>
<path d="M3748 2702 c-15 -59 -41 -158 -58 -220 -16 -62 -30 -115 -30 -117 0
-3 27 -5 60 -5 l59 0 3 210 c2 116 1 217 -2 225 -3 8 -17 -34 -32 -93z"/>
</g>
</svg>
