<?xml version="1.0" standalone="no"?>
<!DOCTYPE svg PUBLIC "-//W3C//DTD SVG 20010904//EN"
 "http://www.w3.org/TR/2001/REC-SVG-20010904/DTD/svg10.dtd">
<svg version="1.0" xmlns="http://www.w3.org/2000/svg"
 width="500.000000pt" height="500.000000pt" viewBox="0 0 500.000000 500.000000"
 preserveAspectRatio="xMidYMid meet">

<g transform="translate(0.000000,500.000000) scale(0.100000,-0.100000)"
fill="#000000" stroke="none">
<path d="M2405 4220 c-653 -103 -1187 -577 -1361 -1208 -43 -154 -54 -246 -54
-439 0 -218 21 -359 79 -533 166 -495 548 -884 1042 -1058 579 -204 1251 -57
1696 372 169 162 270 301 367 507 97 204 143 392 153 614 18 419 -101 797
-352 1120 -82 105 -249 264 -360 344 -182 128 -441 235 -670 277 -140 25 -395
27 -540 4z m531 -30 c218 -37 450 -130 635 -254 616 -409 884 -1186 653 -1886
-191 -577 -692 -1008 -1292 -1110 -156 -27 -398 -27 -554 0 -471 80 -888 366
-1136 781 -97 161 -165 340 -205 534 -18 94 -22 142 -22 325 1 200 2 223 29
335 72 309 208 562 416 779 266 276 571 439 939 501 125 21 399 18 537 -5z"/>
<path d="M1656 3848 c-11 -42 -6 -124 10 -171 8 -25 33 -66 55 -91 53 -60 116
-89 209 -96 73 -6 74 -6 45 -20 -18 -8 -69 -14 -130 -15 -99 -1 -101 -1 -190
-48 -285 -149 -475 -396 -551 -717 -19 -79 -23 -247 -6 -275 11 -19 11 -19 12
-1 0 31 76 177 114 221 l35 40 -30 -74 c-17 -40 -42 -117 -57 -170 -22 -84
-25 -115 -25 -256 0 -189 16 -266 88 -412 43 -87 154 -227 141 -178 -22 79
-26 265 -6 265 4 0 10 -18 14 -40 11 -71 62 -207 107 -285 109 -191 274 -312
504 -370 135 -34 149 -33 93 9 -47 36 -85 81 -112 135 l-18 33 47 -36 c203
-154 636 -207 842 -103 27 14 55 32 62 41 11 13 6 16 -31 26 -139 35 -243 105
-319 213 -150 213 -131 503 44 685 l41 42 -74 0 c-303 0 -558 223 -600 525
-10 73 -6 104 5 39 49 -285 238 -464 532 -505 97 -14 210 -2 295 32 80 31 180
43 265 30 92 -14 159 -41 242 -99 79 -56 120 -71 191 -71 62 -1 129 25 174 67
74 70 98 201 53 298 -13 27 -34 81 -46 119 -12 39 -31 81 -40 94 -18 23 -18
23 -35 -69 -9 -51 -15 -94 -14 -96 2 -2 15 -7 28 -13 25 -10 25 -10 -6 -10
-30 -1 -31 1 -42 61 -11 59 -52 137 -78 145 -6 2 -16 -29 -23 -74 -7 -43 -19
-92 -26 -110 l-14 -32 -93 25 c-51 14 -138 32 -193 39 -55 8 -118 20 -139 26
-42 12 -96 58 -96 82 0 9 15 -1 38 -23 35 -35 91 -60 136 -60 16 0 13 5 -13
24 -55 41 -66 64 -64 134 3 105 65 206 178 291 l30 22 -40 -6 c-64 -10 -141
-50 -190 -99 -39 -40 -43 -42 -30 -16 64 124 202 179 400 159 50 -5 103 -12
119 -15 l29 -6 -5 -99 c-3 -55 -1 -99 4 -99 40 0 111 69 142 138 11 23 24 41
30 39 6 -2 13 -40 16 -88 l5 -84 41 38 c24 21 49 56 59 84 10 27 29 64 42 84
34 51 62 129 69 193 5 42 3 60 -12 85 -10 17 -21 31 -25 31 -12 0 -119 101
-119 112 0 5 34 -9 76 -32 41 -23 78 -40 81 -37 15 16 -12 60 -60 96 -126 94
-278 149 -447 161 -112 9 -162 21 -375 88 -67 22 -99 26 -195 25 -102 0 -132
-5 -260 -39 -141 -38 -150 -39 -310 -39 -181 0 -239 9 -450 70 -65 19 -125 35
-133 35 -8 0 -17 -10 -21 -22z m1292 -151 c36 -21 52 -38 52 -52 0 -40 -11
-44 -70 -29 -30 8 -64 14 -76 14 -26 0 -34 24 -22 60 7 19 5 28 -9 38 -37 29
70 2 125 -31z m157 -68 c14 0 8 -6 -20 -20 -40 -19 -75 -25 -75 -12 0 18 36
44 55 39 11 -3 29 -6 40 -7z"/>
</g>
</svg>
